<svg xmlns="http://www.w3.org/2000/svg" width="194.847" height="128.119" viewBox="0 0 194.847 128.119"><defs><style>.a{fill:#fff;}</style></defs><path class="a" d="M755.5,48.538c-.152-8.707,5.358-16,17.043-22.028V3.34a44.843,44.843,0,0,0-8.706,1.821V21.342c-11.759,7.863-16.15,17.907-16.109,27.2-.041,9.289,4.35,19.334,16.109,27.2V91.916a44.859,44.859,0,0,0,8.706,1.821V70.566c-11.685-6.028-17.195-13.322-17.043-22.029" transform="translate(-681.232 -3.042)"/><path class="a" d="M579.131,110.885c-.252-12.087,5.353-22.35,15.306-31.01V71.79a45.441,45.441,0,0,0-22.187,39.034c0,.021,0,.041,0,.062s0,.041,0,.062a45.443,45.443,0,0,0,22.187,39.035V141.9c-9.955-8.662-15.558-18.924-15.306-31.011" transform="translate(-521.36 -65.39)"/><path class="a" d="M959.37,374.859a13.226,13.226,0,0,0-26.452-.117c0,.039,0,.078,0,.117s0,.078,0,.117a13.226,13.226,0,0,0,26.452-.117" transform="translate(-849.954 -329.364)"/><path class="a" d="M1142.3,21.313V4.87A44.88,44.88,0,0,0,1133.27,3V25.921c12.612,5.684,17.343,13.978,17.213,22.308.13,8.33-4.6,16.624-17.213,22.308V93.458a44.879,44.879,0,0,0,9.03-1.87V75.143c11.634-7.539,16.1-17.568,16.085-26.915.015-9.347-4.452-19.376-16.085-26.915" transform="translate(-1032.489 -2.733)"/><path class="a" d="M1344.12,73.47v8.085c9.607,8.327,15.331,18.6,15.066,30.861.265,12.257-5.459,22.534-15.066,30.861v8.085a45.441,45.441,0,0,0,21.934-38.884c0-.021,0-.041,0-.062s0-.041,0-.061A45.443,45.443,0,0,0,1344.12,73.47" transform="translate(-1224.588 -66.92)"/><path class="a" d="M1539.02,153.43l7.026,9.9,38.283,22.654L1546.49,207.63l-6.759,10.059L1597,186.267Z" transform="translate(-1402.156 -139.752)"/><path class="a" d="M64.491,169.83l-5.514,9.277L21.492,201.76l37.663,21.646,8.893,10.861L9,202.043Z" transform="translate(-8.2 -154.69)"/><path class="a" d="M82.07,1.852A44.857,44.857,0,0,1,90.776.03V23.2C79.092,29.227,73.582,36.521,73.734,45.228c-.152,8.707,5.358,16,17.042,22.028V90.426a44.832,44.832,0,0,1-8.706-1.821V72.425c-11.759-7.862-16.15-17.907-16.109-27.2-.041-9.289,4.35-19.334,16.109-27.2V1.852M50.356,45.167c0,.02,0,.041,0,.061s0,.041,0,.062A45.442,45.442,0,0,0,72.543,84.324V76.239c-9.955-8.662-15.558-18.924-15.307-31.011-.252-12.087,5.353-22.35,15.307-31.01V6.133A45.442,45.442,0,0,0,50.356,45.167m45.286-13.2A13.567,13.567,0,0,0,82.43,45.111c0,.039,0,.078,0,.117s0,.078,0,.117a13.226,13.226,0,0,0,26.452-.116A13.587,13.587,0,0,0,95.654,31.97h-.012m4.6-9.048c12.612,5.684,17.343,13.978,17.213,22.308.13,8.33-4.6,16.624-17.213,22.308V90.458a44.879,44.879,0,0,0,9.03-1.87V72.143c11.634-7.539,16.1-17.568,16.085-26.915.015-9.347-4.451-19.376-16.085-26.915V1.87A44.878,44.878,0,0,0,100.247,0ZM119,14.367c9.607,8.327,15.331,18.6,15.066,30.861.265,12.257-5.458,22.534-15.066,30.861v8.085a45.441,45.441,0,0,0,21.934-38.884c0-.021,0-.04,0-.062s0-.041,0-.061A45.439,45.439,0,0,0,119,6.283Zm23.824,9.123L181.1,46.144,143.266,67.789l-6.759,10.059,57.271-31.421L135.8,13.589ZM0,47.353,59.048,79.577,50.155,68.716,12.492,47.071,49.977,24.417,55.49,15.14Z"/><g transform="translate(20.44 108.723)"><path class="a" d="M229.85,1224.32h13.4c3.833,0,6.211,2.571,6.211,5.67,0,3.762-2.643,5.644-6.211,5.644H234.4v7.234H229.85Zm12.74,7.6c1.586,0,2.326-.556,2.326-1.935s-.74-1.987-2.326-1.987h-8.22v3.922Z" transform="translate(-229.85 -1223.896)"/><path class="a" d="M480.7,1233.126v-8.8h4.546v9.592c0,3.6,1.85,5.378,5.339,5.378,3.516,0,5.365-1.775,5.365-5.378v-9.592H500.5v8.8c0,7.9-3.859,10.174-9.911,10.174S480.7,1241.022,480.7,1233.126Z" transform="translate(-458.392 -1223.906)"/><path class="a" d="M753.24,1224.32h4.546V1239h12.29v3.868H753.24Z" transform="translate(-706.695 -1223.896)"/><path class="a" d="M963.948,1232.5h4.81c-.027,1.246,1.56,2.543,5.365,2.6,3.542.027,6.264-.45,6.264-2.093,0-3.6-16.044.61-16.044-7.34,0-3.789,3.938-6.094,9.779-6.094,6.053,0,10.176,2.543,10.229,6.465h-4.837c.027-1.272-1.348-2.57-5.049-2.6-3.2-.053-5.524.45-5.524,2.014,0,3.471,16.017-.371,16.017,7.392,0,3.816-4.2,6.121-10.44,6.121C968.071,1238.965,963.868,1236.4,963.948,1232.5Z" transform="translate(-898.664 -1219.57)"/><path class="a" d="M1237.69,1224.32h18.026v3.869h-13.48v3.444h13.241v3.63h-13.241V1239h13.48v3.868H1237.69Z" transform="translate(-1148.064 -1223.896)"/><path class="a" d="M1480.118,1236.879l-10.308-12.559h5.6l6.977,8.744,7-8.744h5.6l-10.334,12.533v6.015h-4.546Z" transform="translate(-1359.541 -1223.896)"/><path class="a" d="M1773.85,1224.32h18.026v3.869H1778.4v3.444h13.242v3.63H1778.4V1239h13.48v3.868H1773.85Z" transform="translate(-1636.543 -1223.896)"/></g></svg>